<?xml version="1.0" encoding="UTF-8"?>
<svg width="24px" height="24px" viewBox="0 0 24 24" version="1.1" xmlns="http://www.w3.org/2000/svg" xmlns:xlink="http://www.w3.org/1999/xlink">
    <title>icon/侧栏/意见</title>
    <defs>
        <filter id="filter-1">
            <feColorMatrix in="SourceGraphic" type="matrix" values="0 0 0 0 1.000000 0 0 0 0 1.000000 0 0 0 0 1.000000 0 0 0 1.000000 0"></feColorMatrix>
        </filter>
    </defs>
    <g id="首页" stroke="none" stroke-width="1" fill="none" fill-rule="evenodd">
        <g id="icon/侧栏/意见" transform="translate(-1852.000000, -1995.000000)" filter="url(#filter-1)">
            <g transform="translate(1852.000000, 1995.000000)">
                <rect id="矩形" x="0" y="0" width="24" height="24"></rect>
                <g id="编组-42" transform="translate(1.000000, 2.000000)" stroke="#FFFFFF" stroke-width="1.2">
                    <path d="M13.1764706,0.75 L2,0.75 C0.8954305,0.75 -1.3527075e-16,1.6454305 0,2.75 L0,20.75 L0,20.75 L18.7058824,20.75 C19.8104519,20.75 20.7058824,19.8545695 20.7058824,18.75 L20.7058824,8.04411765 L20.7058824,8.04411765" id="路径-4"></path>
                    <g id="编组-40" transform="translate(5.500000, 0.000000)">
                        <polygon id="路径-5" stroke-linejoin="round" points="1.5 11.5 0 16.25 4.75 15"></polygon>
                        <polyline id="路径-6" points="1.5 11.5 13 6.38378239e-16 16.5 3.25 4.75 15"></polyline>
                        <line x1="10.75" y1="2" x2="14.25" y2="5.5" id="路径-11"></line>
                    </g>
                </g>
            </g>
        </g>
    </g>
</svg>