<?xml version="1.0" encoding="UTF-8"?>
<svg width="22px" height="22px" viewBox="0 0 22 22" version="1.1" xmlns="http://www.w3.org/2000/svg" xmlns:xlink="http://www.w3.org/1999/xlink">
    <title>icon/侧栏/咨询</title>
    <defs>
        <filter id="filter-1">
            <feColorMatrix in="SourceGraphic" type="matrix" values="0 0 0 0 1.000000 0 0 0 0 1.000000 0 0 0 0 1.000000 0 0 0 1.000000 0"></feColorMatrix>
        </filter>
    </defs>
    <g id="首页" stroke="none" stroke-width="1" fill="none" fill-rule="evenodd">
        <g id="安畅首页" transform="translate(-1853.000000, -1836.000000)">
            <g id="icon/侧栏/咨询" transform="translate(1842.000000, 1825.000000)" filter="url(#filter-1)">
                <g transform="translate(11.000000, 11.000000)">
                    <rect id="矩形备份-109" x="0" y="0" width="22" height="22"></rect>
                    <path d="M18.0108173,15.7067308 L8.73918269,15.7067308 L8.73918269,9.16473858 C8.73918269,8.3344088 9.39795673,7.65504808 10.203125,7.65504808 L19.4747596,7.65504808 L19.4747596,14.1970403 C19.4747596,15.02737 18.8159856,15.7067308 18.0108173,15.7067308 L18.0108173,15.7067308 Z" id="路径备份-15" opacity="0.18" fill-rule="nonzero"></path>
                    <path d="M11.171875,0.171875 C16.6858672,0.171875 21.140625,4.95061522 21.140625,10.828125 C21.140625,16.1509279 16.4596868,20.9541952 11.1890958,21.5066046 C10.9058753,21.5362889 10.6522159,21.3307572 10.6225317,21.0475367 C10.5928474,20.7643162 10.7983791,20.5106568 11.0815996,20.4809725 C15.8436949,19.9818584 20.109375,15.6047013 20.109375,10.828125 C20.109375,5.5046097 16.0995164,1.203125 11.171875,1.203125 C6.24423362,1.203125 2.234375,5.5046097 2.234375,10.828125 C2.234375,11.1128968 2.00352182,11.34375 1.71875,11.34375 C1.43397818,11.34375 1.203125,11.1128968 1.203125,10.828125 C1.203125,4.95061522 5.65788283,0.171875 11.171875,0.171875 Z" id="路径" fill="#333333" fill-rule="nonzero"></path>
                    <path d="M11.1353477,17.0333833 C12.392798,17.0333833 13.4184603,18.0598935 13.4184603,19.3183833 C13.4184603,20.5768732 12.392798,21.6033833 11.1353477,21.6033833 C9.87789735,21.6033833 8.8522351,20.5768732 8.8522351,19.3183833 C8.8522351,18.0598935 9.87789735,17.0333833 11.1353477,17.0333833 Z M11.1353477,18.3092716 C10.5790563,18.3092716 10.1270695,18.761632 10.1270695,19.3183833 C10.1270695,19.8751346 10.5790563,20.327495 11.1353477,20.327495 C11.6916391,20.327495 12.1436258,19.8751346 12.1436258,19.3183833 C12.1436258,18.761632 11.6916391,18.3092716 11.1353477,18.3092716 Z" id="形状结合" fill="#333333" fill-rule="nonzero"></path>
                    <path d="M13.6275058,12.2714929 C13.9558701,12.0808473 14.3766108,12.1924904 14.5672564,12.5208547 C14.757902,12.8492191 14.6462589,13.2699597 14.3178946,13.4606053 C13.2317514,14.0912111 11.8917621,14.4375 10.484375,14.4375 C9.19496254,14.4375 7.96123804,14.1470254 6.92559819,13.6112529 C6.58835856,13.4367871 6.45640429,13.021968 6.63087006,12.6847283 C6.80533584,12.3474887 7.22015503,12.2155344 7.55739466,12.3900002 C8.39453238,12.8230806 9.41141147,13.0625 10.484375,13.0625 C11.65388,13.0625 12.7553766,12.7778439 13.6275058,12.2714929 Z" id="路径" fill="#333333" fill-rule="nonzero"></path>
                    <path d="M4.296875,11.6875 L4.296875,8.421875 L2.75,8.421875 C1.89568453,8.421875 1.203125,9.11443453 1.203125,9.96875 L1.203125,12.890625 L3.09375,12.890625 C3.75821759,12.890625 4.296875,12.3519676 4.296875,11.6875 Z M3.265625,9.453125 L3.265625,11.6875 L3.26285586,11.7183947 C3.24830288,11.7985742 3.17812684,11.859375 3.09375,11.859375 L2.234375,11.859375 L2.234375,9.96875 C2.234375,9.68397818 2.46522818,9.453125 2.75,9.453125 L3.265625,9.453125 Z" id="矩形" fill="#333333" fill-rule="nonzero"></path>
                    <path d="M20.796875,12.03125 L20.796875,8.765625 L19.25,8.765625 C18.3956845,8.765625 17.703125,9.45818453 17.703125,10.3125 L17.703125,13.234375 L19.59375,13.234375 C20.2582176,13.234375 20.796875,12.6957176 20.796875,12.03125 Z M19.765625,9.796875 L19.765625,12.03125 L19.7628559,12.0621447 C19.7483029,12.1423242 19.6781268,12.203125 19.59375,12.203125 L18.734375,12.203125 L18.734375,10.3125 C18.734375,10.0277282 18.9652282,9.796875 19.25,9.796875 L19.765625,9.796875 Z" id="矩形备份-137" fill="#333333" fill-rule="nonzero"></path>
                </g>
            </g>
        </g>
    </g>
</svg>