<?xml version="1.0" encoding="UTF-8"?>
<svg width="24px" height="24px" viewBox="0 0 24 24" version="1.1" xmlns="http://www.w3.org/2000/svg" xmlns:xlink="http://www.w3.org/1999/xlink">
    <title>icon-2备份 5</title>
    <g id="解决方案" stroke="none" stroke-width="1" fill="none" fill-rule="evenodd">
        <g id="渗透测试" transform="translate(-1326.000000, -1013.000000)">
            <g id="icon-2备份-4" transform="translate(1326.000000, 1013.000000)">
                <rect id="矩形" x="0" y="0" width="24" height="24"></rect>
                <path d="M17.9659091,3 C18.8175398,3 19.5,3.66867722 19.5,4.48453608 L19.5,19.5154639 C19.5,20.3313324 18.8175426,21 17.9659091,21 L6.03409091,21 C5.18246743,21 4.5,20.3313296 4.5,19.5154639 L4.5,4.48453608 C4.5,3.66868009 5.18247021,3 6.03409091,3 L17.9659091,3 Z M18.1363636,15.1546392 L5.86363636,15.1546392 L5.86363636,19.5154639 C5.86363636,19.6042336 5.91966019,19.6739198 5.99029095,19.6946827 L6.03409091,19.7010309 L17.9659091,19.7010309 C18.0556961,19.7010309 18.1363636,19.6219933 18.1363636,19.5154639 L18.1363636,15.1546392 Z M12.8522727,16.7783505 C13.2288305,16.7783505 13.5340909,17.0691346 13.5340909,17.4278351 C13.5340909,17.7865355 13.2288305,18.0773196 12.8522727,18.0773196 L11.1477273,18.0773196 C10.7711695,18.0773196 10.4659091,17.7865355 10.4659091,17.4278351 C10.4659091,17.0691346 10.7711695,16.7783505 11.1477273,16.7783505 L12.8522727,16.7783505 Z M17.9659091,4.29896907 L6.03409091,4.29896907 C5.94431672,4.29896907 5.86363636,4.37801919 5.86363636,4.48453608 L5.863,13.855 L18.136,13.855 L18.1363636,4.48453608 C18.1363636,4.3780134 18.05569,4.29896907 17.9659091,4.29896907 Z" id="形状结合" fill="#FFFFFF" fill-rule="nonzero"></path>
            </g>
        </g>
    </g>
</svg>