<?xml version="1.0" encoding="UTF-8"?>
<svg width="24px" height="24px" viewBox="0 0 24 24" version="1.1" xmlns="http://www.w3.org/2000/svg" xmlns:xlink="http://www.w3.org/1999/xlink">
    <title>icon/侧栏/电话</title>
    <defs>
        <filter id="filter-1">
            <feColorMatrix in="SourceGraphic" type="matrix" values="0 0 0 0 1.000000 0 0 0 0 1.000000 0 0 0 0 1.000000 0 0 0 1.000000 0"></feColorMatrix>
        </filter>
    </defs>
    <g id="首页" stroke="none" stroke-width="1" fill="none" fill-rule="evenodd">
        <g id="icon/侧栏/电话" transform="translate(-1852.000000, -1939.000000)" filter="url(#filter-1)">
            <g transform="translate(1852.000000, 1939.000000)">
                <rect id="矩形" x="0" y="0" width="24" height="24"></rect>
                <g id="电话" transform="translate(2.000000, 2.000000)" fill-rule="nonzero" stroke="#C9161D" stroke-width="1.2">
                    <path d="M18.5712947,14.3618407 C15.7141535,12.0723281 14.8836778,13.2170844 13.6365357,14.4656497 C12.7017744,15.4018355 10.4160614,13.4770831 8.49368165,11.49995 C6.51987329,9.52329303 4.59844588,7.18187598 5.53320721,6.34949913 C6.83177786,5.04950554 7.92272959,4.268557 5.63701668,1.40714249 C3.35130376,-1.4537958 1.79273326,0.730955336 0.546543512,1.97952064 C-0.908217531,3.43665632 0.442257866,8.84662971 5.79273088,14.2051748 C11.1432039,19.5118153 16.5455816,20.9165703 18.0003427,19.4599108 C19.2470086,18.2113455 21.4808168,16.6504008 18.5717709,14.3613645 L18.5712947,14.3618407 Z" id="路径"></path>
                </g>
            </g>
        </g>
    </g>
</svg>